<svg xmlns="http://www.w3.org/2000/svg" viewBox="0 0 211.24 59.42"><defs><style>.cls-1{isolation:isolate;}.cls-2{fill:#4a8891;}.cls-3{fill:#6dede2;}.cls-4{mix-blend-mode:color-burn;}.cls-5{fill:#5c5a46;}.cls-6,.cls-8{fill:none;stroke-linecap:round;stroke-linejoin:round;stroke-width:0.31px;}.cls-6{stroke:#5c5a46;}.cls-7{fill:#747a87;}.cls-8{stroke:#4a8891;}</style></defs><g class="cls-1"><g id="Layer_1" data-name="Layer 1"><path class="cls-2" d="M18.85,39.08S24,45.78,54.24,45.3c30.44-.48,47-12.87,62.43-13.94,22.15-1.52,47.86,10.18,47.86,10.18s-14.37-13.23-42.77-13.23C103,28.23,91.55,38.23,69.42,41.65,41.1,46,18.85,39.08,18.85,39.08Z"/><path class="cls-3" d="M18.85,38.14s5.19,6.7,35.39,6.22c30.44-.49,47-12.88,62.43-13.94,22.15-1.53,47.86,10.18,47.86,10.18s-14.37-13.24-42.77-13.24C103,27.29,91.55,37.29,69.42,40.71,41.1,45.08,18.85,38.14,18.85,38.14Z"/><path class="cls-2" d="M14.53,37.67S30.13,49,68.61,50.8c29.57,1.36,51.63-16.32,71.27-17.67,28.25-2,56.83,9.49,56.83,9.49s-14.13-13.39-50.33-13.39c-23.87-.1-46.51,16.05-66.73,18C43.29,50.8,14.53,37.67,14.53,37.67Z"/><path class="cls-3" d="M14.53,36.1s15.6,11.36,54.08,13.13c29.57,1.36,51.63-16.32,71.27-17.68C168.13,29.61,196.71,41,196.71,41s-14.13-13.38-50.33-13.38c-23.87-.1-46.51,16-66.73,18C43.29,49.23,14.53,36.1,14.53,36.1Z"/><g class="cls-4"><path class="cls-5" d="M117.53,26.88h4.13L109.05,8s-.77,6.92,2.23,12A21.28,21.28,0,0,0,117.53,26.88Z"/><path class="cls-6" d="M117.53,26.88h4.13L109.05,8s-.77,6.92,2.23,12A21.28,21.28,0,0,0,117.53,26.88Z"/></g><path class="cls-7" d="M118.16,25.94h4.13L109.68,7s-.77,6.93,2.23,12A21.25,21.25,0,0,0,118.16,25.94Z"/><path class="cls-6" d="M118.16,25.94h4.13L109.68,7s-.77,6.93,2.23,12A21.25,21.25,0,0,0,118.16,25.94Z"/><g class="cls-4"><path class="cls-2" d="M111.08,27.75h2.83l-8.64-13s-.53,4.74,1.52,8.2A14.61,14.61,0,0,0,111.08,27.75Z"/><path class="cls-8" d="M111.08,27.75h2.83l-8.64-13s-.53,4.74,1.52,8.2A14.61,14.61,0,0,0,111.08,27.75Z"/></g><path class="cls-3" d="M111.39,26.81h2.83l-8.64-13s-.53,4.75,1.53,8.2A14.51,14.51,0,0,0,111.39,26.81Z"/><path class="cls-8" d="M111.39,26.81h2.83l-8.64-13s-.53,4.75,1.53,8.2A14.51,14.51,0,0,0,111.39,26.81Z"/><g class="cls-4"><path class="cls-2" d="M125.05,26.88h2.16L120.6,17a11.57,11.57,0,0,0,1.17,6.27A11.05,11.05,0,0,0,125.05,26.88Z"/><path class="cls-8" d="M125.05,26.88h2.16L120.6,17a11.57,11.57,0,0,0,1.17,6.27A11.05,11.05,0,0,0,125.05,26.88Z"/></g><path class="cls-3" d="M125.36,25.94h2.17L120.92,16a11.53,11.53,0,0,0,1.16,6.27A11.32,11.32,0,0,0,125.36,25.94Z"/><path class="cls-8" d="M125.36,25.94h2.17L120.92,16a11.53,11.53,0,0,0,1.16,6.27A11.32,11.32,0,0,0,125.36,25.94Z"/><g class="cls-4"><path class="cls-5" d="M129.86,27.3h1.22l-3.71-5.57a6.43,6.43,0,0,0,.66,3.52A6.28,6.28,0,0,0,129.86,27.3Z"/><path class="cls-6" d="M129.86,27.3h1.22l-3.71-5.57a6.43,6.43,0,0,0,.66,3.52A6.28,6.28,0,0,0,129.86,27.3Z"/></g><path class="cls-7" d="M130.18,26.35h1.21l-3.7-5.56a6.45,6.45,0,0,0,.65,3.51A6.1,6.1,0,0,0,130.18,26.35Z"/><path class="cls-6" d="M130.18,26.35h1.21l-3.7-5.56a6.45,6.45,0,0,0,.65,3.51A6.1,6.1,0,0,0,130.18,26.35Z"/><g class="cls-4"><path class="cls-5" d="M36.3,35.16h5.21c1.82,0,3,.63,3,1.69,0,.7-.49,1.23-1.35,1.48a1.17,1.17,0,0,1,1.09,1.18,3.55,3.55,0,0,0,.36,1.72H42.71a3.35,3.35,0,0,1-.29-1.67c0-.55-.35-.75-1.12-.75H38.1v2.42H36.3Zm1.8,1v1.69h3.26c.82,0,1.32-.3,1.32-.85s-.5-.84-1.32-.84Z"/><path class="cls-5" d="M44.8,35.16h7.32v1H46.6v1.48h4.11v1H46.6v1.64h5.52v1H44.8Z"/><path class="cls-5" d="M59.39,40.2a4.4,4.4,0,0,1-3.26,1.14c-2.55,0-4.32-1.17-4.32-3.14S53.71,35,56.45,35c2.43,0,4.17.9,4.58,2.4H59.18A2.74,2.74,0,0,0,56.45,36c-1.68,0-2.8.8-2.8,2.18s1.12,2.16,2.79,2.16a2.79,2.79,0,0,0,2.76-1.44H56.55V38H61v3.26H59.39Z"/><path class="cls-5" d="M64.93,35.16H67l3.85,6.07h-2L68,39.86H63.79L63,41.23H61.09Zm-.58,3.76h3.11l-.09-.16-1.46-2.49-1.46,2.49Z"/><path class="cls-5" d="M72,36.16H68.52v-1H77.3v1H73.81v5.07H72Z"/><path class="cls-5" d="M80.78,36.16H77.29v-1h8.78v1h-3.5v5.07H80.78Z"/><path class="cls-5" d="M87.45,35.16h2.07l3.85,6.07h-2l-.81-1.37H86.31l-.82,1.37H83.61Zm-.58,3.76H90l-.09-.16-1.46-2.49L87,38.76Z"/><path class="cls-5" d="M95.76,35.16h5c1.92,0,3.12.72,3.12,1.9s-1.2,1.89-3.1,1.89H97.55v2.28H95.76Zm1.79,1V38h3.09c.93,0,1.46-.31,1.46-.91s-.53-.92-1.46-.92Z"/><path class="cls-5" d="M104,38.2c0-2,2-3.16,4.69-3.16s4.67,1.17,4.67,3.16-1.95,3.16-4.67,3.16S104,40.18,104,38.2Zm7.52,0c0-1.36-1.16-2.16-2.83-2.16s-2.84.8-2.84,2.16,1.17,2.15,2.84,2.15S111.51,39.56,111.51,38.2Z"/><path class="cls-5" d="M113.69,35.16h1.79v6.07h-1.79Z"/><path class="cls-5" d="M116,35.16H118l2.24,2.22,2.23,2.22,0-4.44h1.6v6.07H122L119.75,39l-2.22-2.2,0,2.2v2.21H116Z"/><path class="cls-5" d="M127.81,36.16h-3.48v-1h8.78v1h-3.5v5.07h-1.8Z"/><path class="cls-5" d="M140.69,41.23h-2.07l-3.84-6.07h2l1.47,2.44L139.72,40l1.46-2.43,1.47-2.44h1.89Z"/><path class="cls-5" d="M144.57,35.16h1.78v6.07h-1.78Z"/><path class="cls-5" d="M146.84,35.16h1.79v5.08h5.44v1h-7.23Z"/><path class="cls-5" d="M154.36,35.16h1.8v5.08h5.43v1h-7.23Z"/><path class="cls-5" d="M164.74,35.16h2.06l3.85,6.07h-2l-.82-1.37h-4.24l-.82,1.37H160.9Zm-.58,3.76h3.1l-.09-.16-1.45-2.49-1.47,2.49Z"/><path class="cls-5" d="M169.3,39.12h1.82c.23.85,1.08,1.27,2.58,1.27s2.21-.33,2.21-.79-1.17-.75-2.53-.91c-1.83-.21-4-.43-4-1.82,0-1.09,1.44-1.83,3.79-1.83,2.51,0,4.15.8,4.45,2.2H175.9c-.24-.79-1.2-1.23-2.67-1.23s-2,.32-2,.75c0,.62,1.33.75,2.8.93,1.76.2,3.71.48,3.71,1.8,0,1.11-1.45,1.86-3.94,1.86S169.62,40.55,169.3,39.12Z"/></g><path class="cls-7" d="M36.93,34.54h5.21c1.82,0,2.94.62,2.94,1.69,0,.69-.48,1.22-1.34,1.47a1.16,1.16,0,0,1,1.08,1.18,3.66,3.66,0,0,0,.37,1.72H43.34a3.35,3.35,0,0,1-.29-1.67c0-.55-.35-.75-1.12-.75h-3.2V40.6h-1.8Zm1.8,1v1.69H42c.81,0,1.32-.3,1.32-.85s-.51-.84-1.32-.84Z"/><path class="cls-7" d="M45.43,34.54h7.32v1H47.22V37h4.12v1H47.22v1.64h5.53v1H45.43Z"/><path class="cls-7" d="M60,39.57a4.4,4.4,0,0,1-3.26,1.14c-2.55,0-4.33-1.17-4.33-3.14s1.91-3.16,4.65-3.16c2.43,0,4.17.91,4.58,2.4H59.81a2.74,2.74,0,0,0-2.73-1.42c-1.68,0-2.8.8-2.8,2.18s1.12,2.16,2.79,2.16a2.8,2.8,0,0,0,2.76-1.43H57.18v-1h4.49V40.6H60Z"/><path class="cls-7" d="M65.56,34.54h2.07l3.85,6.06h-2l-.81-1.37H64.42L63.6,40.6H61.72ZM65,38.3h3.11l-.1-.17-1.45-2.49-1.46,2.49Z"/><path class="cls-7" d="M72.64,35.53H69.15v-1h8.78v1h-3.5V40.6H72.64Z"/><path class="cls-7" d="M81.41,35.53H77.92v-1H86.7v1H83.2V40.6H81.41Z"/><path class="cls-7" d="M88.08,34.54h2.07L94,40.6H92l-.81-1.37H86.94l-.82,1.37H84.24ZM87.5,38.3h3.11l-.1-.17-1.45-2.49L87.6,38.13Z"/><path class="cls-7" d="M96.39,34.54h5c1.92,0,3.12.71,3.12,1.89s-1.2,1.89-3.1,1.89H98.18V40.6H96.39Zm1.79,1v1.83h3.09c.93,0,1.46-.31,1.46-.91s-.53-.92-1.46-.92Z"/><path class="cls-7" d="M104.62,37.57c0-2,2-3.16,4.69-3.16S114,35.58,114,37.57s-2,3.16-4.67,3.16S104.62,39.55,104.62,37.57Zm7.52,0c0-1.36-1.16-2.16-2.83-2.16s-2.84.8-2.84,2.16,1.17,2.16,2.84,2.16S112.14,38.93,112.14,37.57Z"/><path class="cls-7" d="M114.32,34.54h1.79V40.6h-1.79Z"/><path class="cls-7" d="M116.59,34.54h2.07l2.24,2.21L123.12,39l0-4.43h1.6V40.6h-2.07l-2.25-2.21-2.22-2.2,0,2.2V40.6h-1.61Z"/><path class="cls-7" d="M128.44,35.53H125v-1h8.77v1h-3.49V40.6h-1.8Z"/><path class="cls-7" d="M141.32,40.6h-2.07l-3.84-6.06h2L138.88,37l1.47,2.43L141.81,37l1.47-2.43h1.89Z"/><path class="cls-7" d="M145.2,34.54H147V40.6H145.2Z"/><path class="cls-7" d="M147.47,34.54h1.79v5.07h5.44v1h-7.23Z"/><path class="cls-7" d="M155,34.54h1.8v5.07h5.43v1H155Z"/><path class="cls-7" d="M165.36,34.54h2.07l3.85,6.06h-2l-.81-1.37h-4.24l-.82,1.37h-1.88Zm-.57,3.76h3.1l-.09-.17-1.45-2.49-1.47,2.49Z"/><path class="cls-7" d="M169.93,38.49h1.82c.23.85,1.08,1.27,2.58,1.27s2.21-.33,2.21-.79-1.17-.75-2.53-.91c-1.83-.21-4-.43-4-1.82,0-1.09,1.44-1.83,3.79-1.83,2.51,0,4.15.8,4.44,2.2h-1.72c-.24-.79-1.21-1.23-2.67-1.23s-2,.33-2,.75c0,.62,1.33.75,2.8.93,1.76.2,3.71.48,3.71,1.8,0,1.11-1.46,1.86-3.94,1.86S170.24,39.92,169.93,38.49Z"/></g></g></svg>